<?xml version="1.0" encoding="UTF-8"?><svg xmlns="http://www.w3.org/2000/svg" xmlns:xlink="http://www.w3.org/1999/xlink" contentScriptType="text/ecmascript" width="375" zoomAndPan="magnify" contentStyleType="text/css" viewBox="0 0 375 374.999991" height="374.999991" preserveAspectRatio="xMidYMid meet" version="1.0"><defs><clipPath id="clip-0"><path d="M 113 121.03125 L 262 121.03125 L 262 253.78125 L 113 253.78125 Z M 113 121.03125 " clip-rule="nonzero"/></clipPath></defs><rect x="-37.5" width="450" fill="rgb(100%, 100%, 100%)" y="-37.499999" height="449.999989" fill-opacity="1"/><rect x="-37.5" width="450" fill="rgb(100%, 100%, 100%)" y="-37.499999" height="449.999989" fill-opacity="1"/><rect x="-37.5" width="450" fill="rgb(60.778809%, 82.749939%, 83.529663%)" y="-37.499999" height="449.999989" fill-opacity="1"/><path fill="rgb(0%, 0%, 0%)" d="M 196.324219 160.164062 C 195.253906 165.164062 202.933594 167.296875 204.003906 162.285156 C 205.496094 155.359375 214.457031 155.351562 215.9375 162.285156 C 217.007812 167.285156 224.6875 165.175781 223.617188 160.164062 C 220.515625 145.65625 199.4375 145.644531 196.324219 160.164062 " fill-opacity="1" fill-rule="nonzero"/><g clip-path="url(#clip-0)"><path fill="rgb(0%, 0%, 0%)" d="M 253.425781 186.507812 C 253.425781 186.910156 253.097656 187.238281 252.691406 187.238281 L 244.429688 187.238281 C 244.027344 187.238281 243.695312 186.910156 243.695312 186.507812 L 243.695312 154.945312 C 243.695312 154.53125 244.027344 154.203125 244.429688 154.203125 L 252.691406 154.203125 C 253.097656 154.203125 253.425781 154.53125 253.425781 154.945312 Z M 235.730469 154.945312 L 235.730469 203.453125 C 235.730469 209.679688 230.660156 214.730469 224.4375 214.730469 L 150.421875 214.730469 C 144.199219 214.730469 139.128906 209.679688 139.128906 203.453125 L 139.128906 140.253906 C 139.128906 134.027344 144.199219 128.972656 150.421875 128.972656 L 224.4375 128.972656 C 230.660156 128.972656 235.730469 134.027344 235.730469 140.253906 Z M 131.164062 186.507812 C 131.164062 186.910156 130.835938 187.238281 130.429688 187.238281 L 122.15625 187.238281 C 121.753906 187.238281 121.421875 186.910156 121.421875 186.507812 L 121.421875 154.945312 C 121.421875 154.53125 121.753906 154.203125 122.15625 154.203125 L 130.429688 154.203125 C 130.835938 154.203125 131.164062 154.53125 131.164062 154.945312 Z M 177.351562 238.339844 L 196.347656 238.339844 C 198.429688 238.339844 200.117188 240.023438 200.117188 242.09375 C 200.117188 244.171875 198.429688 245.855469 196.347656 245.855469 L 177.351562 245.855469 C 175.28125 245.855469 173.59375 244.171875 173.59375 242.09375 C 173.59375 240.023438 175.28125 238.339844 177.351562 238.339844 Z M 252.691406 146.246094 L 244.429688 146.246094 C 244.179688 146.246094 243.9375 146.269531 243.695312 146.292969 L 243.695312 140.253906 C 243.695312 129.640625 235.054688 121.019531 224.4375 121.019531 L 150.421875 121.019531 C 139.796875 121.019531 131.164062 129.640625 131.164062 140.253906 L 131.164062 146.292969 C 130.921875 146.269531 130.667969 146.246094 130.429688 146.246094 L 122.15625 146.246094 C 117.359375 146.246094 113.457031 150.140625 113.457031 154.945312 L 113.457031 186.507812 C 113.457031 191.296875 117.359375 195.191406 122.15625 195.191406 L 122.3125 195.191406 L 122.3125 220.34375 C 122.3125 234.535156 133.867188 246.074219 148.078125 246.074219 L 166.328125 246.074219 C 167.972656 250.570312 172.277344 253.808594 177.351562 253.808594 L 196.347656 253.808594 C 202.820312 253.808594 208.082031 248.558594 208.082031 242.09375 C 208.082031 235.636719 202.820312 230.386719 196.347656 230.386719 L 177.351562 230.386719 C 172.277344 230.386719 167.972656 233.613281 166.328125 238.121094 L 148.078125 238.121094 C 138.261719 238.121094 130.277344 230.148438 130.277344 220.34375 L 130.277344 195.191406 L 130.429688 195.191406 C 130.667969 195.191406 130.921875 195.171875 131.164062 195.160156 L 131.164062 203.453125 C 131.164062 214.066406 139.796875 222.683594 150.421875 222.683594 L 224.4375 222.683594 C 235.054688 222.683594 243.695312 214.066406 243.695312 203.453125 L 243.695312 195.160156 C 243.9375 195.171875 244.179688 195.191406 244.429688 195.191406 L 252.691406 195.191406 C 257.488281 195.191406 261.402344 191.296875 261.402344 186.507812 L 261.402344 154.945312 C 261.402344 150.140625 257.488281 146.246094 252.691406 146.246094 " fill-opacity="1" fill-rule="nonzero"/></g><path fill="rgb(0%, 0%, 0%)" d="M 204.652344 189.765625 C 193.160156 194.164062 181.6875 194.164062 170.207031 189.765625 C 165.421875 187.929688 163.339844 195.621094 168.09375 197.4375 C 180.734375 202.28125 194.125 202.28125 206.765625 197.4375 C 211.511719 195.621094 209.449219 187.929688 204.652344 189.765625 " fill-opacity="1" fill-rule="nonzero"/><path fill="rgb(0%, 0%, 0%)" d="M 170.84375 162.285156 C 171.917969 167.285156 179.597656 165.175781 178.535156 160.164062 C 175.421875 145.65625 154.34375 145.644531 151.234375 160.164062 C 150.171875 165.164062 157.851562 167.296875 158.925781 162.285156 C 160.402344 155.359375 169.363281 155.351562 170.84375 162.285156 " fill-opacity="1" fill-rule="nonzero"/></svg>